<svg xmlns="http://www.w3.org/2000/svg" viewBox="0 0 88.72 73"><defs><style>.cls-1{fill:#2a2723;}</style></defs><title>sidebarlogoblackAsset 1</title><g id="Layer_2" data-name="Layer 2"><g id="Layer_1-2" data-name="Layer 1"><g id="Layer_2-2" data-name="Layer 2"><g id="Layer_2-2-2" data-name="Layer 2-2"><path class="cls-1" d="M23.81,25.93A182.53,182.53,0,0,1,52.92,9.82c5.51-2.4,10.94-3.7,17-2.79,2.74.42,5.45,1.09,8.19,1.61,1.13.22,2.26.4,3.41.54.73.09,1.47.16,2.2.19,0,0,3.83.21,2.69,1.09a.46.46,0,0,0,.11.83l1.65.47-.3-.56C85.13,19.3,76.56,22.37,68.95,23.93c-.58.12-.33,1,.24.88,7.95-1.63,16.72-4.94,19.51-13.35a.46.46,0,0,0-.3-.56l-1.65-.47.11.83a1.42,1.42,0,0,0,0-2.29,3.31,3.31,0,0,0-2.06-.47,37.69,37.69,0,0,1-4.57-.4c-4.78-.74-9.46-2.24-14.34-2.34s-9.54,1.55-14,3.5c-4.65,2.05-9.2,4.33-13.66,6.77q-7.68,4.21-14.94,9.11C22.86,25.47,23.32,26.26,23.81,25.93Z"/><path class="cls-1" d="M64.56,22.78c-.51,2.49-1.35,5.59-1,8.14s2.76,4,4.05,5.94c3.06,4.54,4.09,10.08,5.06,15.36.11.58,1,.33.88-.24-.87-4.76-1.8-9.64-4.15-13.92-1.14-2.08-2.77-3.58-4.14-5.45-1-1.41-.83-2.94-.64-4.57s.48-3.33.82-5c.12-.57-.76-.82-.88-.24Z"/><path class="cls-1" d="M68.08,25.27A20.44,20.44,0,0,1,73.4,37.16a52.41,52.41,0,0,1,.09,7,27,27,0,0,1-1,7.17c-.17.56.71.8.88.24a28.3,28.3,0,0,0,1-7.41A47.24,47.24,0,0,0,74.17,36a21.14,21.14,0,0,0-5.45-11.38c-.4-.43-1,.21-.65.65Z"/><path class="cls-1" d="M69.88,24.19l3.87,7.25a32,32,0,0,1,3.14,7.33c1.25,5.07.72,10.38.23,15.53-.06.58.86.58.91,0,.51-5.22,1-10.6-.26-15.75S73.2,28.47,70.67,23.75c-.28-.52-1.07-.06-.79.46Z"/><path class="cls-1" d="M73.44,43.92a60.33,60.33,0,0,1,3.17,10.31c.12.58,1,.33.88-.24a60.33,60.33,0,0,0-3.17-10.31C74.11,43.14,73.22,43.37,73.44,43.92Z"/><path class="cls-1" d="M64.09,24.33c-6.09,1-11.68,3.65-17.38,5.9a68,68,0,0,1-19,4.57c-.58.05-.59,1,0,.91a68.16,68.16,0,0,0,18.7-4.41c5.88-2.29,11.6-5.08,17.88-6.09.58-.09.33-1-.24-.88Z"/><path class="cls-1" d="M62.57,25.18a33.32,33.32,0,0,0-3,6.48,24.93,24.93,0,0,1-4,7.09,29.34,29.34,0,0,1-5.74,5.2c-1.9,1.33-3.92,2.48-5.71,4-3.86,3.19-5.15,8-7.75,12-2.89,4.53-7.08,8-11.22,11.38-.46.37.19,1,.65.65,4-3.18,7.88-6.5,10.79-10.69,3-4.41,4.31-9.74,8.73-13.16,2-1.52,4.21-2.76,6.21-4.29a28.82,28.82,0,0,0,5.15-5A24,24,0,0,0,60,33.07a41.35,41.35,0,0,1,3.39-7.43c.33-.49-.46-.95-.79-.46Z"/><path class="cls-1" d="M26.78,35.64a56.55,56.55,0,0,1-2.23,36.51c-.22.54.66.78.88.24a57.36,57.36,0,0,0,2.24-37,.46.46,0,0,0-.88.24Z"/><path class="cls-1" d="M43.22,13.83C41.57,8.63,39.43,3,33.85,1A24.8,24.8,0,0,0,23.79.14,38,38,0,0,0,13.26,2.53a.47.47,0,0,0-.31.58l0,.09c3.08,6.62,7.45,20.17,17.35,17.42a.46.46,0,0,0-.24-.88C25.64,21,21.7,17.85,19.44,14.29s-3.87-7.7-5.66-11.55l-.27.67c5.83-2.21,13-3.48,19.1-1.83,5.89,1.59,8.06,7.22,9.74,12.48.18.56,1.06.3.88-.24Z"/><path class="cls-1" d="M30.51,20.89h.2a.46.46,0,1,0,0-.91h-.2a.46.46,0,1,0,0,.91Z"/><path class="cls-1" d="M23.48,25.2,14,21.46c-2.35-.93-5.24-2.65-7.84-1.7-1.77.65-2.82,2.38-3.5,4.05A40.91,40.91,0,0,0,.47,32.5,29.3,29.3,0,0,0,.2,41.15c.3,2.19.76,4.6,2.6,6a20.78,20.78,0,0,0,3.65,2L11,51.43c2.59,1.27,5.25,3,8.07,3.68,5.48,1.39,8.45-3.65,9.76-8.16A.46.46,0,0,0,28,46.7c-1.19,4.1-3.83,8.9-8.89,7.45A45.26,45.26,0,0,1,12,50.91c-2.28-1.12-4.64-2.26-7-3.42a6.33,6.33,0,0,1-2.85-2.3,10.55,10.55,0,0,1-1-3.39,26.76,26.76,0,0,1,0-8.5A55.14,55.14,0,0,1,2.91,26c.55-1.89,1.32-4.17,3.14-5.21,2.51-1.43,6.49,1,8.87,1.95l8.33,3.3C23.79,26.29,24,25.41,23.48,25.2Z"/><path class="cls-1" d="M50.73,13.62a149.6,149.6,0,0,0-17.92,7.64,1.85,1.85,0,0,0,.44,3.35c8.41,2.13,16-2.72,24.1-3.76a1.83,1.83,0,0,0,0-3.65c-7.17-.63-15.4-.86-20.64,5a1.84,1.84,0,0,0,1.78,3c5.15-1,9.95-3.07,14.7-5.21,2.37-1.07,4.74-2.16,7.18-3.1s5.45-2.13,8.25-1.63l-1.28-2.25c-.35.91-2.68,1.45-3.48,1.78l-4.71,2L50,20.63,51.41,24A22.31,22.31,0,0,1,64.6,19.48l-1.28-3.12C58.75,20,53.15,22.1,47.79,24.25c-5.72,2.28-11.57,4.51-17.7,5.25L31,32.9c6.76-5.2,14.61-9.42,23.3-9.86l-.91-3.4-9.64,4.7c-2.69,1.31-5.32,2.5-7.14,5A1.84,1.84,0,0,0,37.7,32c2.82,1,5.86,0,8.55-.94,3.14-1.13,6.17-2.58,9.22-3.92l9-4a21.47,21.47,0,0,0,7.11-4.51,1.84,1.84,0,0,0-.37-2.87c-4.64-2.07-9.69-1.18-14.47-.09a128.6,128.6,0,0,0-15.18,4.81C37.1,22.12,32.75,23.77,29.14,27c-1.56,1.41-3,3-4.57,4.36a16.67,16.67,0,0,1-2.36,1.81c-.23.14-.64.25-.8.45l-.2.11,1.25,1.35a14.05,14.05,0,0,0,.68-1.48c2.33-4.13,6.8-6.52,10.84-8.67,1.92-1,.53-3.72-1.41-3.35a19.75,19.75,0,0,0-6.77,2.66c-1.76,1.11-4.76,3-4.57,5.4.22,2.72,3.83,2.84,5.87,3.07a28.11,28.11,0,0,0,8.48-.4l-1-3.52c-4.57.89-9.13,1.88-13.22,4.21a1.86,1.86,0,0,0,.44,3.35,32,32,0,0,0,16.57-.61c1.89-.58,1.65-3.73-.49-3.59A20.45,20.45,0,0,1,33.61,32v3.52L44,33.34c2-.44,1.52-3.57-.49-3.59-9.13-.08-17.47,3.9-25.47,7.86-1.32.65-1.12,3.12.44,3.35a47.12,47.12,0,0,0,14.2-.1c2.2-.35,1.38-3.38-.49-3.59A42.81,42.81,0,0,0,18.36,38c-2.15.46-1.43,3.4.49,3.59,6.33.61,13.32,1.15,19.54-.46,5.06-1.31,9.93-4.92,10.87-10.35A1.86,1.86,0,0,0,47,28.51a22.1,22.1,0,0,0-12.59,6.8c-1.34,1.44.49,4.18,2.21,2.87L50.41,27.67c1.83-1.38.24-4.39-1.84-3.15q-9.85,5.86-19.3,12.36c-1.35.93-1,3.57.91,3.4,4.09-.34,7.61-2.23,10.87-4.63C44.59,33,48,30.2,51.29,27.3c1.54-1.35-.5-4.06-2.21-2.87-2.57,1.79-5.07,3.7-7.45,5.74-2,1.7-4.82,3.63-5.44,6.31a1.85,1.85,0,0,0,2.25,2.25A45.79,45.79,0,0,0,62.71,21.28c1.08-1.52-1-3.42-2.5-2.5-4.57,2.82-9.16,5.7-12.89,9.61-1.38,1.44.44,4.09,2.21,2.87L57.14,26c2.24-1.55,4.47-3.11,7.18-3.69l-1.78-3a26.69,26.69,0,0,1-5.21,3.25,1.85,1.85,0,0,0,.44,3.35c3.69.63,7-.68,10.19-2.36,3.45-1.79,6.87-3.63,10.31-5.45,1.3-.69,1.14-3.09-.44-3.35a74.56,74.56,0,0,0-18.62-1c-5.16.49-10.35,2-13.92,6a1.83,1.83,0,0,0,2.58,2.58,53.22,53.22,0,0,1,14.48-9.09c2.1-.88,1.39-4.11-1-3.52A89.17,89.17,0,0,0,41.5,17.22l2.21,2.87a17.3,17.3,0,0,1,6.42-3.39c2.76-.94,5.53-1.85,8.3-2.77,1.86-.61,1.67-3.71-.49-3.59a33.72,33.72,0,0,0-21.31,9.17c-2.89,2.76-5.43,6.12-5.74,10.23a21.38,21.38,0,0,0,.76,6.57A18.88,18.88,0,0,0,34,42.47c2.58,3.65,7.39.42,10.08-1.38a52.22,52.22,0,0,0,9.06-7.94c1.39-1.49,2.72-3,4-4.59s3.07-3,2.9-5c-.14-1.63-1.44-2.67-2.77-3.4a35,35,0,0,0-6.46-2.83c-5-1.52-9.68-.13-14.34,1.68-4.13,1.61-8.42,4.19-9.22,8.94a1.84,1.84,0,0,0,3.35,1.41c1.22-1.79,1.68-3.83,3.22-5.34A16.4,16.4,0,0,1,39,20.87c1.74-.74,4.26-2.18,6.15-1.31a4.79,4.79,0,0,1,2.37,4.18c.07,2.37-1.11,4.61-2.26,6.6s-2.58,4.17-4,6.17C38.53,40.39,35.49,44,34,48.63h3.52c-2-5.15-4.15-14.39-11.6-12.52-1.28.32-2.83,1.29-4.17,1.08-1-.16-1.67-1.11-2.23-1.85-1.49-1.94-2.91-4-5.62-4a1.88,1.88,0,0,0-1.76,1.34,8.49,8.49,0,0,0,11,10.62,1.85,1.85,0,0,0,.81-3A63.39,63.39,0,0,0,17,33.93c-1.48-1.18-4.16.36-2.87,2.21a14.53,14.53,0,0,0,8,6c4,1,5.28-3.32,4.34-6.45s-3.6-5.6-6.23-7.43c-2.86-2-6.48-3.43-9.93-2.16-1.55.57-1.91,3.12,0,3.52,5.25,1.12,10.56,2.28,15,5.43l1.41-3.35A57.76,57.76,0,0,1,15.5,28.76c-2-.74-3.12,2.29-1.41,3.35a104.79,104.79,0,0,0,10,5.39c2.1,1,4-2,1.84-3.15l-6.89-3.65L18.62,34a49.14,49.14,0,0,1,7.79-2.44,1.85,1.85,0,0,0,.44-3.35,22.86,22.86,0,0,0-8.06-3c-2.3-.4-3.29,3.12-1,3.52A20.06,20.06,0,0,1,25,31.4l.44-3.35a49.14,49.14,0,0,0-7.79,2.44c-1.34.54-2,2.53-.44,3.35l6.89,3.65,1.84-3.15a104.79,104.79,0,0,1-10-5.39L14.53,32.3a57.76,57.76,0,0,0,11.31,2.93,1.84,1.84,0,0,0,1.41-3.35c-4.7-3.32-10.35-4.62-15.9-5.8v3.52c3.81-1.4,8.45,2.11,10.61,5.06a6.28,6.28,0,0,1,1.17,2.41c.07.35.25,1.14,0,1.46s-.77-.17-1.14-.33a11.24,11.24,0,0,1-4.67-3.9l-2.87,2.21a63.39,63.39,0,0,1,6.79,6.31l.81-3a4.84,4.84,0,0,1-6.47-6.12L13.85,35c1.54,0,2.71,2.62,3.6,3.62a6.14,6.14,0,0,0,6.38,2c2.37-.58,4.59-2.11,6.37.37S32.83,46.78,34,49.6a1.84,1.84,0,0,0,3.52,0c1.81-5.44,6.12-9.79,9.18-14.53,2.81-4.35,6.11-9.8,3.65-15a7.41,7.41,0,0,0-4.85-4.19c-2.71-.64-5.43.69-7.87,1.72a20.33,20.33,0,0,0-6.14,3.7c-1.89,1.78-2.54,4.13-4,6.23l3.35,1.41c.55-3.25,3.35-5,6.2-6.2,3.08-1.26,6.52-2.63,9.9-2.44a15,15,0,0,1,4.81,1.22,21.66,21.66,0,0,1,4.44,2.2c.47.35.26,0,.18.21s-.55.68-.75.91L54.3,26.35c-1.1,1.29-2.22,2.58-3.37,3.83a54,54,0,0,1-7,6.58,33.94,33.94,0,0,1-3.55,2.35,19.59,19.59,0,0,1-2,1.07c-.75.32-1.14.54-1.56-.22a19.54,19.54,0,0,1-2.23-10.22c.3-3.21,2.74-5.87,5-8A29.77,29.77,0,0,1,57.95,14l-.49-3.59c-3.07,1-6.18,2-9.23,3.09a20,20,0,0,0-7.11,4c-1.56,1.46.42,3.81,2.21,2.87a85.06,85.06,0,0,1,19-7.26l-1-3.52a58.59,58.59,0,0,0-16.09,10l2.58,2.58c3.13-3.47,7.73-4.67,12.25-5a74,74,0,0,1,16.74,1l-.44-3.35-8.79,4.66c-2.67,1.42-5.73,3.35-8.89,2.79l.44,3.35a30.55,30.55,0,0,0,6-3.83c1.52-1.24-.16-3.4-1.78-3a21.77,21.77,0,0,0-7.59,3.74L47.7,28.11,49.92,31c3.53-3.69,7.84-6.39,12.16-9l-2.5-2.5a41.76,41.76,0,0,1-22.1,15.77l2.25,2.25c.25-1.06,1.23-1.76,2-2.47q1.44-1.33,2.93-2.59c2-1.7,4.12-3.3,6.29-4.81L48.7,24.72c-2.95,2.58-6,5.12-9.09,7.48-2.78,2.09-5.87,4.14-9.44,4.43l.91,3.4q9.44-6.49,19.3-12.36l-1.84-3.15L34.8,35,37,37.88A18.91,18.91,0,0,1,48,32l-2.25-2.25c-.85,4.87-5.43,7.32-9.92,8.14-5.48,1-11.46.51-17,0l.49,3.59a39.76,39.76,0,0,1,12.89-.58l-.49-3.59a41.2,41.2,0,0,1-12.24.12l.44,3.35c7.42-3.67,15.16-7.44,23.63-7.36l-.49-3.6L32.64,32c-1.68.36-1.8,3.26,0,3.52a24.89,24.89,0,0,0,5.28.26l-.48-3.6a28.18,28.18,0,0,1-14.63.61l.44,3.35c3.8-2.16,8.1-3,12.34-3.84,2.31-.45,1.33-4-1-3.52a24.62,24.62,0,0,1-5.58.4A22.66,22.66,0,0,1,26.5,29a5.76,5.76,0,0,0-1.36-.25l-.54-.12q.06,1.4.56.77c.56-.19,1.18-1.07,1.69-1.43a17.32,17.32,0,0,1,2.07-1.27,16.82,16.82,0,0,1,4.62-1.55l-1.41-3.35c-4,2.13-8.09,4.49-10.89,8.13-1.12,1.46-2.86,3.81-2.33,5.78.74,2.76,3.71,1.54,5.34.51,4-2.54,6.7-6.7,10.87-9.07A48.65,48.65,0,0,1,42.57,24c2.72-1,5.45-2,8.22-2.86a78.87,78.87,0,0,1,9.51-2.48c3-.55,6.27-1,9.11.25L69,16a18.43,18.43,0,0,1-6.15,3.84c-2.72,1.22-5.45,2.41-8.18,3.62S49.36,25.94,46.64,27c-2.37.94-5.4,2.35-8,1.45l1.09,2.68c1.54-2.1,4.65-3.09,6.9-4.19l8.57-4.18c1.63-.79.85-3.49-.91-3.4C45,19.85,36.5,24.13,29.19,29.73c-1.22.94-1.12,3.65.91,3.4,6.7-.8,13-3.09,19.18-5.58,5.84-2.34,11.67-4.67,16.63-8.62,1.28-1,.18-3.13-1.29-3.12a25.62,25.62,0,0,0-15,5,1.85,1.85,0,0,0-.75,2.28A1.79,1.79,0,0,0,51,24.14L62.34,19.4c2.93-1.22,7.28-2.1,8.52-5.38a1.84,1.84,0,0,0-1.28-2.25c-5.63-1-11.3,2-16.3,4.21s-10.22,4.69-15.78,5.72l1.78,3c4.57-5.08,11.89-4.47,18.06-3.92V17.18a75.94,75.94,0,0,0-11.63,2.9c-3.76,1.09-7.63,2-11.5,1l.44,3.35a142.21,142.21,0,0,1,17-7.28c2.2-.77,1.25-4.3-1-3.52Z"/><path class="cls-1" d="M14.48,36.27a1.83,1.83,0,0,0,0-3.65A1.83,1.83,0,0,0,14.48,36.27Z"/><path class="cls-1" d="M7.17,40.12a1.83,1.83,0,0,0,0-3.65A1.83,1.83,0,0,0,7.17,40.12Z"/><path class="cls-1" d="M8.19,39.31a1.83,1.83,0,0,0,0-3.65A1.83,1.83,0,0,0,8.19,39.31Z"/><path class="cls-1" d="M7.3,47.19a3.74,3.74,0,0,0,5.18-1.08c1.26-1.83,1.05-4.4.91-6.51A34.4,34.4,0,0,0,9.25,25.51c-.7-1.29-3.07-1.14-3.35.44A20.61,20.61,0,0,0,9.6,41.73c.72,1,2.54,1.4,3.15,0a34.59,34.59,0,0,0,3-15.11,1.84,1.84,0,0,0-3.4-.91,17.14,17.14,0,0,0-2.71,9.91c.09,2.34,3.68,2.36,3.65,0l-.12-8.88a1.85,1.85,0,0,0-3.12-1.29A19,19,0,0,0,4.62,35.7c-.5,2.9-1,9.34,3.61,9.07,4-.23,5.42-5.38,5-8.62-.48-4.08-3.19-7.27-6-10a1.84,1.84,0,0,0-3,.81A35.58,35.58,0,0,0,2.7,36.4c-.05,2.79,0,6.17,1.94,8.37,1.5,1.67,4.61,2.6,6.24.59.93-1.15.65-2.56.37-3.88-.35-1.68-.72-3.35-1.09-5l-3,1.78c.77.75.66,2.2,1,3.18a5.73,5.73,0,0,0,2.26,2.85,6.11,6.11,0,0,0,6.68.06,1.85,1.85,0,0,0,.37-2.87,6.32,6.32,0,0,0-7.31-1.28A1.84,1.84,0,0,0,9.77,43a10.31,10.31,0,0,0,9,2.7,1.83,1.83,0,0,0,.81-3c-1.71-1.43-4.18-2.49-6-.58a3,3,0,0,0,1.69,5.05,16.06,16.06,0,0,0,7.31-.63,20.91,20.91,0,0,0,6.92-3.44c1.25-.94,1.1-3.63-.91-3.4a41.38,41.38,0,0,0-8.42,1.83c-1.63.54-1.84,3.08,0,3.52,2.65.63,5.21.18,7.89.13,2.17,0,5.53.48,5.29,3.35-.19,2.35,3.43,2.32,3.65,0a11.78,11.78,0,0,0-1.51-6.92,1.84,1.84,0,0,0-3.15,0A20.7,20.7,0,0,0,30.6,54c.33,2.06,3.6,1.52,3.59-.49a31,31,0,0,1,.43-5.5H31.09A17,17,0,0,1,31.62,55c-.27,1.91,2.22,3.35,3.35,1.41a144.91,144.91,0,0,0,7.69-16.31l-3.52-1A66.13,66.13,0,0,1,32.36,54c-1.23,2,1.92,3.84,3.15,1.84A90.38,90.38,0,0,1,48,39.94c2.41-2.44,5-4.66,7.43-7.1A49.43,49.43,0,0,0,62,24.52l-3.4-.91c-.28,5.75-5,10.09-9.32,13.26C44.68,40.25,39.78,43.28,36.39,48l3.4.91a16.17,16.17,0,0,1,.33-4.84c.35-1.5,1.18-2.89,1.4-4.41a10.51,10.51,0,0,0-.86-4.6l-1.61-5.18c-.4-1.28-.76-2.61-2-3.32s-2.93-.48-4.32-.48h-2l.65.55c.23-.09.72-1.46.91-1.74a7.8,7.8,0,0,1,3.28-2.53L33.7,19.26a31.05,31.05,0,0,0-7.11,5.37,1.83,1.83,0,0,0,2.58,2.58,27.51,27.51,0,0,1,6.37-4.8c2.11-1.16.26-4.09-1.84-3.15a10.7,10.7,0,0,0-5.88,6.45,3,3,0,0,0,1.29,3.75c1.44.69,3.52.3,5.08.3,1.06,0,.91-.19,1.25.84l.85,2.74a44.59,44.59,0,0,1,1.56,5.1c.28,1.52-1,3.44-1.32,5a19.6,19.6,0,0,0-.4,5.55,1.84,1.84,0,0,0,3.4.91c3.56-5,9.22-7.85,13.91-11.59S62,29.7,62.28,23.6c.09-1.89-2.48-2.38-3.4-.91C55,28.74,49.61,33,44.69,38.14A94.92,94.92,0,0,0,32.33,54.06l3.15,1.84a70.15,70.15,0,0,0,7.15-15.75c.72-2.31-2.64-3.07-3.52-1A140,140,0,0,1,31.8,54.62L35.15,56a21.43,21.43,0,0,0-.54-9c-.46-1.62-3.2-1.85-3.52,0a36.48,36.48,0,0,0-.56,6.47L34.13,53a16.37,16.37,0,0,1,1.36-9.57H32.33a8.4,8.4,0,0,1,1,5.08H37c.26-3.24-2.33-5.85-5.31-6.65-3.49-.93-7.09.47-10.56-.36V45a36.84,36.84,0,0,1,7.45-1.68l-.91-3.4a18.22,18.22,0,0,1-6.32,3.12,16.62,16.62,0,0,1-3.49.55,6.06,6.06,0,0,0-1.52,0q-.91-.24-.09,1.12a3.42,3.42,0,0,1,.75.51l.81-3a6.42,6.42,0,0,1-5.45-1.76L12,43.3a2.57,2.57,0,0,1,2.87.71l.38-2.87a2.47,2.47,0,0,1-3.53-.68,10.5,10.5,0,0,1-.61-2.39,5.28,5.28,0,0,0-1.39-2.44,1.84,1.84,0,0,0-3,1.78l.61,2.8c.14.66.16,2.29.61,2.8q.75-.12.36-.17a1,1,0,0,1-.41-.15,6.11,6.11,0,0,1-.57-.51,5.16,5.16,0,0,1-.77-2.67A30.94,30.94,0,0,1,7.73,27.89l-3,.81c1.83,1.79,3.76,3.75,4.61,6.23a7.22,7.22,0,0,1,.37,3.38c-.07.47-.76,3-1.56,2.82a18.15,18.15,0,0,1-.09-3,15.07,15.07,0,0,1,.71-3.68,15.39,15.39,0,0,1,4-6.35l-3.14-1.3.12,8.88h3.65a13.7,13.7,0,0,1,2.21-8.08l-3.4-.91A30.44,30.44,0,0,1,9.59,39.88h3.15a17,17,0,0,1-3.33-13l-3.33.44a30.83,30.83,0,0,1,3.23,9,28.47,28.47,0,0,1,.47,4.53c0,.37.08,3.65-.65,3.11C7.26,42.62,5.44,45.78,7.3,47.19Z"/><path class="cls-1" d="M23.5,8.15c2.37,4.74,7.61,5.67,11.44,8.76l1.78-3A63.22,63.22,0,0,1,26.6,8.58c-1.52-1-3-2-4.52-3.07a6.86,6.86,0,0,0-4.64-1.67,1.85,1.85,0,0,0-1.58,2.74c1.59,3,3.28,6.12,5.89,8.38,2.85,2.46,6.63,3.65,10,5.1,1.8.76,3.78-1.27,2.21-2.87a84.17,84.17,0,0,0-9.5-8.29c-1.77-1.33-3.45,1.4-2.21,2.87,3.35,4,7.92,6.53,12.44,8.94l.91-3.4c-1.95.1-3.1-1.72-4.17-3.09a16.17,16.17,0,0,0-3.68-3.5C25,8.79,21.57,7.82,18.31,6.91a1.84,1.84,0,0,0-2.25,2.25,16.8,16.8,0,0,0,3.23,5.34c1.29,1.68,2.46,3.61,4.43,4.54,3.84,1.83,9,1.31,12.06,4.63,1.6,1.74,4.17-.86,2.58-2.58-2.74-3-7-3.67-10.71-4.63a7.76,7.76,0,0,1-3-1.08,13,13,0,0,1-1.92-2.3c-1.16-1.5-2.64-3-3.18-4.88l-2.24,2.25c3.35.94,7,1.89,9.7,4.3s4.32,6.44,8.6,6.22c1.72-.09,2.61-2.51.91-3.4C32.3,15.27,28,12.94,24.87,9.17L22.66,12a78.07,78.07,0,0,1,8.76,7.73l2.21-2.87c-3.06-1.3-6.73-2.35-9.3-4.53-2.39-2-3.86-4.91-5.31-7.64L17.44,7.48c1.55-.17,3,1.35,4.21,2.17,1.5,1,3,2.05,4.57,3a68.1,68.1,0,0,0,9.52,4.73c1.67.68,3.16-1.93,1.78-3-3.4-2.76-8.79-3.89-10.86-8C25.6,4.2,22.45,6,23.5,8.15Z"/><path class="cls-1" d="M20.17,6.09c4.57.05,8.47,2.69,12.09,5.2a15.11,15.11,0,0,1,4.66,4.57,32.24,32.24,0,0,1,2.54,5.7c.81,2.19,4.34,1.24,3.52-1a35.53,35.53,0,0,0-3.16-7,18.71,18.71,0,0,0-5.3-5.18c-4.31-3-8.92-5.93-14.35-6C17.82,2.41,17.81,6.06,20.17,6.09Z"/><path class="cls-1" d="M23.11,7.93a10.25,10.25,0,0,1,11.45,7.76l3-1.78C33.91,9.21,29.17,5.21,23.3,3.6V7.13a17.53,17.53,0,0,1,7-.73,4.81,4.81,0,0,1,2.8.74,14.85,14.85,0,0,1,2.27,2.23,30.14,30.14,0,0,1,6.32,11.32c.69,2.24,4.21,1.28,3.52-1A34.24,34.24,0,0,0,37.22,6a9.16,9.16,0,0,0-6.45-3.28,20.31,20.31,0,0,0-8.41.84,1.84,1.84,0,0,0,0,3.52C27.62,8.57,31.72,12.28,35,16.5c1.19,1.52,3.46-.15,3-1.78A14,14,0,0,0,22.13,4.41c-2.32.36-1.33,3.88,1,3.52Z"/><path class="cls-1" d="M17.73,5.17l7.17.49V2L20.42,2l.49,3.59a15.77,15.77,0,0,0,3.51-1C26.13,3.86,26.18.8,23.93,1l-4.13.33A1.83,1.83,0,0,0,19.8,5a47.21,47.21,0,0,0,8.9-.62C30.76,4,30.22.74,28.21.75l-3.75,0a1.83,1.83,0,0,0,0,3.65,53.7,53.7,0,0,1,7,.75L32,1.61A12.83,12.83,0,0,1,28.46,1L28,4.54a7.36,7.36,0,0,1,4,.93l1.41-3.35a20.94,20.94,0,0,0-4.43-.84l.48,3.58c1.89-.47,4,.65,5.61,1.62a9.24,9.24,0,0,1,3,4,20,20,0,0,1,1.85,10.71c-.22,2.34,3.44,2.33,3.65,0A23.32,23.32,0,0,0,40.48,7.32a10.75,10.75,0,0,0-4.76-4.58c-2.33-1.16-4.67-2-7.27-1.38-2.11.52-1.48,3.42.49,3.59a16.37,16.37,0,0,1,3.47.71,1.84,1.84,0,0,0,1.41-3.35A11,11,0,0,0,28,.88a1.84,1.84,0,0,0-.49,3.59A16.61,16.61,0,0,0,32,5.26c2,.08,2.54-3.23.49-3.59a61.19,61.19,0,0,0-8-.88V4.44l3.75,0L27.73.82a42.09,42.09,0,0,1-7.92.49V5l4.13-.33L23.44,1a15.77,15.77,0,0,1-3.5,1c-2.07.34-1.52,3.58.49,3.59l4.48,0c2.37,0,2.33-3.49,0-3.65l-7.17-.48C15.38,1.36,15.39,5,17.73,5.17Z"/><path class="cls-1" d="M20.26,2c-1.76.75-3.75,1-4.76,2.84a3.51,3.51,0,0,0,1.11,4.6,1.84,1.84,0,0,0,2.5-.65c.36-.67.2-1.35.43-2s1.22-1,1.83-1.28A16.59,16.59,0,0,1,26.3,4.47c1.88-.21,2.68-3.12.48-3.59A9.53,9.53,0,0,0,22,1l1.41,3.35a1.7,1.7,0,0,1,1.1-.18c2.3.38,3.29-3.12,1-3.53a5.92,5.92,0,0,0-3.9.55C19.75,2.13,21,5.11,23,4.55a5.48,5.48,0,0,1,2.81-.14L26.32.82a21.42,21.42,0,0,0-7,1.67A8.25,8.25,0,0,0,16.67,4.4,3.15,3.15,0,0,0,15.94,6a2.44,2.44,0,0,0,0,.87q0,.7.07.13l2.5-.65c.47.36.56,0,1.19-.24.82-.3,1.65-.54,2.46-.88a1.84,1.84,0,0,0,.65-2.5A1.88,1.88,0,0,0,20.26,2Z"/><path class="cls-1" d="M44.24,19.18l6.79-5c1.52-1.12.71-4.1-1.41-3.35A29.39,29.39,0,0,0,41.78,15c-1.83,1.39-.07,4.57,1.84,3.15a40.75,40.75,0,0,1,26.22-7.86c2.41.12,2.25-3.35,0-3.65C67,6.32,59.43,4.21,59.74,9.39a1.89,1.89,0,0,0,1.34,1.76,28.7,28.7,0,0,0,10.83,1.11L70.15,10l-.75,1.81c-.47,1.12.69,2.31,1.76,2.31a19.64,19.64,0,0,1,6.33,1V11.57a35.22,35.22,0,0,1-6.43.77c-2.34.07-2.36,3.65,0,3.65,1.66,0,3.31.06,5,.22s3.11.55,4.67.61c2.74.1,5.18-1.88,4.57-4.77A1.87,1.87,0,0,0,83,10.77c-3.58.59-7.53,1.18-10.88-.63l-.91,3.4a32.93,32.93,0,0,1,9.85.43c2.28.46,3.27-2.93,1-3.52L69.65,7.27l-1,3.52,11.24,1.75.49-3.59A32.54,32.54,0,0,1,70.13,6.5l-1,3.52a52.87,52.87,0,0,0,15.55,2.83c2.35.07,2.35-3.58,0-3.65A49.44,49.44,0,0,1,70.13,6.5c-2.27-.78-3.08,2.65-1,3.52A35.53,35.53,0,0,0,80.42,12.6c2,.14,2.53-3.27.49-3.59L69.67,7.27c-2.26-.35-3.3,2.93-1,3.52L81.09,14l1-3.52a36.18,36.18,0,0,0-10.83-.56c-1.67.17-2.65,2.46-.91,3.4,4.26,2.34,9.07,1.76,13.7,1L81.77,13c.05.25-4.46-.33-4.85-.37a50.58,50.58,0,0,0-5.84-.3V16a40.74,40.74,0,0,0,7.4-.9c1.87-.4,1.6-3,0-3.52a22.91,22.91,0,0,0-7.31-1.16l1.76,2.31L73.67,11A1.84,1.84,0,0,0,71.9,8.65a25.86,25.86,0,0,1-9.86-1l1.34,1.76c0,.35,5.84.87,6.46,1V6.72a43.94,43.94,0,0,0-28.07,8.36l1.84,3.15a26.29,26.29,0,0,1,7-3.84l-1.41-3.35L42.4,16c-1.88,1.38-.05,4.55,1.84,3.15Z"/><path class="cls-1" d="M79.21,17.25C73.58,18.8,67.69,18.85,62,20.08c-2.3.49-1.32,4,1,3.52,5.69-1.22,11.57-1.28,17.21-2.83A1.83,1.83,0,0,0,79.21,17.25Z"/><path class="cls-1" d="M6.2,27.63c-2.34,3.45-3,8-4,11.92H5.7c-.76-2.13,0-4.21.56-6.3.61-2.24,1.13-4.5,1.59-6.78.28-1.4-1.28-3.08-2.68-2.06a8.06,8.06,0,0,0-2.74,3.76A24.43,24.43,0,0,0,.6,33.83C0,37.38.7,41.86,3,44.69c1.49,1.83,4.06-.78,2.58-2.58s-1.8-5.56-1.39-7.82a20.2,20.2,0,0,1,1.18-3.77c.37-1,.75-2.32,1.62-2.95L4.33,25.5c-.54,2.65-1.19,5.25-1.9,7.86-.63,2.37-1.11,4.79-.26,7.17.58,1.62,3,1.85,3.52,0,.95-3.65,1.5-7.88,3.65-11.05,1.32-2-1.83-3.78-3.15-1.84Z"/><path class="cls-1" d="M34.74,51.05a39.79,39.79,0,0,0-2.89,6q-.58,1.52-1,3.08c-.13.48-.23,1-.39,1.45s-.49.59,0,.81l.37,2.87c2.9-3.53,2.48-8.83,2.65-13.14q.32-8,0-16.08c-.09-2.34-3.74-2.36-3.65,0q.26,7.15.05,14.29-.11,3.57-.35,7.14c-.12,1.73-.14,3.8-1.29,5.21-.67.81-.8,2.34.37,2.87,3,1.35,4.85-1,5.56-3.65a35.87,35.87,0,0,1,3.75-9,1.83,1.83,0,0,0-3.15-1.84Z"/><path class="cls-1" d="M28.36,44c.24,3.47.53,7,.7,10.43a30.23,30.23,0,0,1-1.57,10.16c-.65,2.26,2.87,3.23,3.52,1A33.38,33.38,0,0,0,32.74,55c-.13-3.63-.48-7.35-.73-11C31.85,41.66,28.19,41.64,28.36,44Z"/><path class="cls-1" d="M2.83,43a35.13,35.13,0,0,0,7.53,6.43c1.6,1,3.23,2,4.87,3a24.15,24.15,0,0,0,4.52,2.52c2.69.86,5.38-2,6.85-4a14.85,14.85,0,0,0,3-8.27c.12-2.1-3-2.42-3.59-.49a8.79,8.79,0,0,1-2.22,3.22,8.16,8.16,0,0,1-3.18,2.44c-2.85,1-5.84-1.52-7.93-3.12l-.91,3.4a96.69,96.69,0,0,0,11.65.75,1.84,1.84,0,0,0,.91-3.4,5.67,5.67,0,0,0-4.72-.7c-.87.26-1.46,1-2.27,1.3s-2.22-.38-2.94-.56c-3.6-.91-7.38-2.25-9.34-5.64a1.86,1.86,0,0,0-3.35.44A4.67,4.67,0,0,0,2.09,44C3,45.88,6,44.59,5.43,42.62L4.37,39c-.55-1.9-3.8-1.63-3.59.49.31,3.17,1,6.62,4,8.26A38.22,38.22,0,0,0,9.9,49.45a31.22,31.22,0,0,1,5.39,2.62c2,1.22,3.86-1.95,1.84-3.15a37.1,37.1,0,0,0-8.76-3.78c-1.22-.35-2.36-.68-3-1.83a9.59,9.59,0,0,1-.93-3.87l-3.59.49L1.9,43.58l3.35-1.41a.81.81,0,0,1,0-.89l-3.35.44c2,3.52,5.58,5.52,9.36,6.7,1.91.61,4.34,1.52,6.36,1.31,1.85-.21,3-2.33,4.87-1.11l.91-3.4a96.69,96.69,0,0,1-11.65-.75c-2-.26-2.13,2.47-.91,3.4C14,50.28,17.93,52.74,22,51.22A11.63,11.63,0,0,0,26.38,48a12.44,12.44,0,0,0,3.15-4.83l-3.59-.49a11.06,11.06,0,0,1-2.35,6.23,8,8,0,0,1-2.69,2.41c-.44.19.33.3-.3,0s-1.35-.78-2-1.17c-4.81-2.8-9.44-5.48-13.16-9.7-1.56-1.77-4.13.83-2.58,2.58Z"/><path class="cls-1" d="M1.3,43.57c4.87,5,12.64,11.64,20.21,9.22,2.23-.71,1.28-4.24-1-3.52-3.24,1-6.33-.3-9.06-2A40.9,40.9,0,0,1,3.88,41c-1.64-1.69-4.22.89-2.58,2.58Z"/><path class="cls-1" d="M8,22.78c-3.47-.34-5.18,2.93-6,5.75H5.5a1.86,1.86,0,0,1,1.3-2.08l-2.5-2.5-.12.16,1.09-.84.55-.05L6.91,24q-.06,1.39.4.37l.42-.64,1-1.49H5.57a5.26,5.26,0,0,0,4.06,2,13.51,13.51,0,0,1,4.74,1.47c3,1.54,5.84,3.53,9.25,4l.49-3.59c-5-.37-9.19-4-14.38-3.75a1.85,1.85,0,0,0-1.58,2.74c2.46,5.18,10.29,4.83,15.05,4.8,1.73,0,2.6-2.57.91-3.4l-7.4-3.68a1.83,1.83,0,0,0-1.84,3.15,12.79,12.79,0,0,0,4.44,2.21c.58.16,3.23.26,3.45.91L25,27a27.51,27.51,0,0,1-8-2.13c-2.06-1.08-3.81-2.68-6-3.46-2.08-.72-4.82-.72-5.63,1.74A35.84,35.84,0,0,0,4,31.29c-.4,4.9-.81,10.8,4.39,13.22a25.3,25.3,0,0,0,7.76,2c2.05.23,4.76.17,5.72-2.05a1.86,1.86,0,0,0-1.09-2.68,19.76,19.76,0,0,0-7.18-.82,3.75,3.75,0,0,0-2.67.93,2.09,2.09,0,0,0-.27,2.64c1.32,1.93,4.48.11,3.15-1.84l-.13-.19v1.84q-.8.48.18.25l.54,0a17.51,17.51,0,0,1,1.9,0,16.59,16.59,0,0,1,3.5.7L18.73,42.6c-.4.93-3.65.1-4.6-.1-1.75-.37-3.87-.8-5.3-2S7.48,37.05,7.49,35.3A49,49,0,0,1,7.91,29c.14-1.07.33-2.13.54-3.19a5,5,0,0,0,.3-1.4q.25-.61-.19-.07-.61.41.18.26a16.44,16.44,0,0,1,4.37,2.13c3.37,2.21,7,3.09,10.92,3.75,1.27.21,2.74-.8,2.25-2.25a4.71,4.71,0,0,0-3.86-3,13.19,13.19,0,0,1-5.71-2.26L14.87,26.1l7.41,3.69.91-3.4A41.46,41.46,0,0,1,15.64,26c-1.76-.3-3.53-.85-4.35-2.57L9.71,26.13c5-.2,9.37,3.39,14.39,3.75,2,.14,2.53-3.29.49-3.59-3-.42-5.39-2.08-8-3.46a20.74,20.74,0,0,0-3.93-1.67,13.94,13.94,0,0,0-2.23-.42c-.38,0-1.49,0-1.74-.3a1.86,1.86,0,0,0-3.15,0c-.94,1.42-2.91,3.43-2,5.26a2.22,2.22,0,0,0,3.83.08c1.22-1.65-1-3.14-2.5-2.5A5.5,5.5,0,0,0,2,29.5c.37,1.83,3,1.63,3.52,0,.38-1.27.84-3.23,2.51-3.07C10.34,26.66,10.33,23,8,22.78Z"/><path class="cls-1" d="M54.35,31.68a1.87,1.87,0,0,1,0,2.26l3,1.78a8.48,8.48,0,0,1,1.46-2.39l-3-1.78a14.61,14.61,0,0,1-8,9.06c-1.47.68-1,2.95.44,3.35a3.51,3.51,0,0,0,3.92-1.46c1.22-1.6-1.06-3.19-2.5-2.5a32.13,32.13,0,0,0-14.1,13.24l3.15,1.84a1.39,1.39,0,0,1,.89-.76L37,52.25A32.57,32.57,0,0,1,27.27,65c-1.83,1.48.77,4,2.58,2.58a36.17,36.17,0,0,0,10.66-14.4c.69-1.67-1.43-2.61-2.68-2.06a4.45,4.45,0,0,0-2.19,2.08c-1.11,2.07,2,3.9,3.15,1.84A28.79,28.79,0,0,1,51.6,43.14l-2.5-2.5.2-.22.44,3.35a18.15,18.15,0,0,0,9.62-11.25c.51-1.69-1.84-3.18-3-1.78a13.73,13.73,0,0,0-2.44,4c-.66,1.67,1.93,3.16,3,1.78a5.63,5.63,0,0,0,.56-6.7c-1.25-2-4.41-.16-3.15,1.84Z"/><path class="cls-1" d="M82.95,12.62l-5,4.24,2.87,2.21c1.08-2,3.38-5.81,1.37-7.86a9.6,9.6,0,0,0-3.73-1.83,20.09,20.09,0,0,0-4.47-.9C68.55,8,60.59,9.91,59.7,16.28A1.89,1.89,0,0,0,61,18.53a1.84,1.84,0,0,0,2.25-1.28c.58-4.17,5.66-5.21,9.19-5.18a16.1,16.1,0,0,1,5.52,1,9.31,9.31,0,0,1,1.42.61q-.1-.64-.19-.1-.11.37-.24.74a19.53,19.53,0,0,1-1.3,2.89,1.83,1.83,0,0,0,2.87,2.21l5-4.22c1.8-1.52-.79-4.09-2.58-2.58Z"/><path class="cls-1" d="M16.09,25.34a20.65,20.65,0,0,0-7.06-5,1.87,1.87,0,0,0-2.36.47,1.81,1.81,0,0,0,.14,2.4A5.54,5.54,0,0,1,8.91,27a1.84,1.84,0,0,0,2.25,1.28A1.87,1.87,0,0,0,12.43,26a8.47,8.47,0,0,0-3-5.39L7.19,23.52a18.17,18.17,0,0,1,6.32,4.4c1.6,1.73,4.18-.86,2.58-2.58Z"/><path class="cls-1" d="M65.09,23.57a34.88,34.88,0,0,0-.57,6.87h3.65a4.46,4.46,0,0,0-.81-2.51,1.86,1.86,0,0,0-3.35.44c-1.21,3.75,3.26,4.81,4,7.85l2.68-2.06c-.91-.51-2.2-1.52-2.3-2.68l-.53,1.3q-1.93-.52-1.32.34l.39.72.62,1.22q.67,1.34,1.28,2.71A57,57,0,0,1,71,43.46c.71,2.23,4.23,1.28,3.52-1a64.6,64.6,0,0,0-2.69-7.06Q71,33.69,70.11,32a5.35,5.35,0,0,0-1.67-2.24,2.38,2.38,0,0,0-3.58,2.67,8.16,8.16,0,0,0,4,4.9,1.85,1.85,0,0,0,2.68-2.06,7.72,7.72,0,0,0-1.73-3.38c-.52-.58-2.55-1.68-2.27-2.53l-3.35.44a.86.86,0,0,1,.3.66c.12,2.33,3.7,2.37,3.65,0a29.92,29.92,0,0,1,.44-5.92c.41-2.3-3.11-3.28-3.52-1Z"/><path class="cls-1" d="M66.11,25.51A11.67,11.67,0,0,0,69,33a17.78,17.78,0,0,1,2.49,3.25,17.63,17.63,0,0,1,1.25,4.33c.48,2.3,4,1.33,3.52-1a16.19,16.19,0,0,0-3-7.28c-1.74-2.16-3.39-3.88-3.42-6.85C69.74,23.16,66.09,23.15,66.11,25.51Z"/><path class="cls-1" d="M65.88,23.32a23,23,0,0,0,2.84,6.91c1,1.7,4,.61,3.35-1.41L70.93,25.5l-3.51,1c1,3,3.46,5,4.67,7.9,1.33,3.16,1.86,6.72,2.63,10,.53,2.29,4.05,1.32,3.52-1a68.25,68.25,0,0,0-2.63-10,17.55,17.55,0,0,0-2.15-3.9,16.16,16.16,0,0,1-2.52-4c-.75-2.21-4.26-1.27-3.52,1l1.11,3.32,3.35-1.41a19.88,19.88,0,0,1-2.47-6c-.53-2.29-4.05-1.32-3.52,1Z"/><path class="cls-1" d="M80,15.63a4.19,4.19,0,0,1-2.28,1.54,12.33,12.33,0,0,0-3,1.78A9.67,9.67,0,0,1,71,20.56c-1.05.29-2.74,1.09-3.79.5-2.05-1.15-3.9,2-1.84,3.15a6.3,6.3,0,0,0,4.77.37,19.77,19.77,0,0,0,5.69-1.89c.72-.44,1.3-1.07,2-1.52a14.44,14.44,0,0,1,2-.91,6.55,6.55,0,0,0,3.41-2.77c1.13-2.06-2-3.91-3.15-1.84Z"/><path class="cls-1" d="M82.59,13.87c-.41,1.17-2.39,1.5-3.41,1.74a26.36,26.36,0,0,1-5.37.61c-3.61.09-7.22-.2-10.82,0-2.34.12-2.35,3.77,0,3.65,4.54-.23,9.1.3,13.64-.15,3.52-.36,8.14-1.06,9.49-4.87.79-2.22-2.74-3.18-3.52-1Z"/><path class="cls-1" d="M77.44,44.74a6.09,6.09,0,0,0-2.7-3.67,1.84,1.84,0,0,0-2.5.65,1.87,1.87,0,0,0,.65,2.5l.26.17c-.3-.2,0,0,0,.06s.15.15.22.22.22.34.05.05c.1.18.21.35.3.54-.12-.22,0-.1,0,.07a3.64,3.64,0,0,1,.1.37,1.83,1.83,0,1,0,3.52-1Z"/><path class="cls-1" d="M17.69,3l-2.48-.68.61,2.29c.05-.05.3-.3.33-.26a.33.33,0,0,1-.36,0,.54.54,0,0,1-.32-.26.94.94,0,0,1,.23-1.06l-.25.12a2.19,2.19,0,0,0-.61.41,2,2,0,0,0-.54,1.46,1.64,1.64,0,0,0,1.21,1.5,1.38,1.38,0,0,0,1.69-1,1.4,1.4,0,0,0-1-1.69l-.09,0,.61.35.12.14.19.69q0-.24-.06.1a.61.61,0,0,1-.27.46A1.08,1.08,0,0,0,17,5.51a2.11,2.11,0,0,0,.8-.67,1.89,1.89,0,0,0,0-2.18,2.16,2.16,0,0,0-1.89-1,3.11,3.11,0,0,0-2,1A1.38,1.38,0,0,0,14.5,5L17,5.7A1.38,1.38,0,0,0,17.69,3Z"/><path class="cls-1" d="M83.41,14.58a8.83,8.83,0,0,1,3.24-.91L85.47,11.6c-.17.23-.4.71-.65.86l.69-.19a3.61,3.61,0,0,1-1.05-.42l-1.18-.49a1.38,1.38,0,0,0-1.69,1,1.41,1.41,0,0,0,1,1.69,7.68,7.68,0,0,0,3,1c1.13-.05,1.73-1.23,2.33-2a1.38,1.38,0,0,0-1.18-2.06A12.38,12.38,0,0,0,82,12.23c-1.57.79-.19,3.16,1.38,2.37Z"/><path class="cls-1" d="M82.47,14a4.4,4.4,0,0,0,4-2.9c.51-1.25-1.45-2.37-2.29-1.33s-2,2.71-3.53,2.47a1.41,1.41,0,0,0-1.69,1,1.38,1.38,0,0,0,1,1.69c2.7.44,4.59-1.2,6.2-3.17l-2.29-1.33a1.52,1.52,0,0,1-1.31.89c-1.75.11-1.76,2.85,0,2.74Z"/><path class="cls-1" d="M82,13.54a28.14,28.14,0,0,1,4.41-2,1.39,1.39,0,0,0,.33-2.5,4.08,4.08,0,0,0-4.77.5c-1.35,1.14.61,3.07,1.94,1.94a1.25,1.25,0,0,1,1.45-.07l.33-2.5a32.39,32.39,0,0,0-5.07,2.26C79,12,80.42,14.41,82,13.56Z"/><path class="cls-1" d="M26.75,66.76A2,2,0,0,1,26,68.92c-.91.75.39,2,1.29,1.29a3.82,3.82,0,0,0,1.2-3.93.91.91,0,0,0-1.76.49Z"/><path class="cls-1" d="M30.72,67.22a.91.91,0,0,0,0-1.83A.91.91,0,0,0,30.72,67.22Z"/><path class="cls-1" d="M30.27,65.33a16.46,16.46,0,0,0-3.48,2.92c-.79.87.5,2.17,1.29,1.29a14.7,14.7,0,0,1,3.12-2.64c1-.61.08-2.2-.91-1.58Z"/><path class="cls-1" d="M74.58,43.23a12.7,12.7,0,0,1,1.08,5.53c0,1.19,1.74,1.16,1.83,0l.3-4.33H76q.16,3.43.08,6.86a.91.91,0,0,0,1.83,0q.08-3.43-.08-6.86a.91.91,0,0,0-1.83,0l-.3,4.33h1.83a14.78,14.78,0,0,0-1.33-6.45c-.48-1.07-2.05-.14-1.58.91Z"/><path class="cls-1" d="M71.41,41.19l-.11.51,1.67.22a3.75,3.75,0,0,1-.19-1.31A.92.92,0,0,0,71,40.36a7.59,7.59,0,0,0-.19,2.32.91.91,0,0,0,1.83,0V40.2c0-1-1.64-1.29-1.79-.24a4.19,4.19,0,0,0,.49,2.63c.39.77,1.2,1.69,1,2.62l1.52-.4a.46.46,0,0,1-.24-.61h0c.48-1.06-1.1-2-1.58-.91a2.29,2.29,0,0,0,.53,2.82.92.92,0,0,0,1.52-.4,4,4,0,0,0-.44-2.62c-.38-.77-1.22-1.71-1.08-2.63l-1.79-.24v2.48h1.83a5.94,5.94,0,0,1,.12-1.83l-1.79-.24a5.31,5.31,0,0,0,.26,1.8.91.91,0,0,0,1.67.22,2.5,2.5,0,0,0,.3-1.92c-.23-1.15-2-.66-1.76.49Z"/><path class="cls-1" d="M72.22,44.18v2.23a.91.91,0,0,0,1.83,0V44.18A.91.91,0,0,0,72.22,44.18Z"/><path class="cls-1" d="M61.87,24.5a1.56,1.56,0,0,0-1,1.54c0,.41.2,1.11-.14,1.42s-.85-.13-.69-.57-.69-.79-.88-.24a1.37,1.37,0,0,0,1.64,1.79,1.42,1.42,0,0,0,1-1.16c.08-.43-.25-1.7.3-1.9s.3-1.09-.24-.88Z"/><path class="cls-1" d="M63.08,24.1a3.42,3.42,0,0,0-1.89,1.4c-.3.44.36.91.72.55l2.54-2.54a.46.46,0,0,0-.65-.65L61.26,25.4,62,26a2.44,2.44,0,0,1,1.34-1,.46.46,0,0,0-.24-.88Z"/><path class="cls-1" d="M63,24.28a4.57,4.57,0,0,1-.61.9,4.31,4.31,0,0,1-.4.38l-.26.2q-.26,0-.16.19t.07-.06a.58.58,0,0,1,.09-.22,2,2,0,0,1,.33-.47A2.51,2.51,0,0,1,63,24.6L62.34,24,61,25.83c-.3.42.39,1,.72.55q1.4-1.69,2.9-3.28c.4-.43-.24-1.07-.65-.65q-1.49,1.6-2.9,3.28l.69.55,1.31-1.86c.3-.42-.26-.78-.62-.62-.8.34-2.41,1.76-1.61,2.76s2.56-1.17,2.93-1.83-.5-1-.79-.46Z"/><path class="cls-1" d="M35.06,19.88Q41,21.45,47,22.6c.4.08.84-.45.44-.76-3.26-2.61-6.26-5.64-10.29-7-.56-.19-.79.69-.24.88C40.79,17,43.68,20,46.81,22.48l.44-.76q-6-1.15-11.95-2.72a.46.46,0,0,0-.24.88Z"/><path class="cls-1" d="M36.13,15.42a13.12,13.12,0,0,1,4.13,7.25l.76-.46a57.84,57.84,0,0,1-8.92-9.68c-.34-.47-1.13,0-.79.46a44.4,44.4,0,0,0,7.51,8.42.46.46,0,0,0,.76-.42,19.34,19.34,0,0,0-4.25-9.21c-.33-.4-1,.12-.72.55l4.87,7.21.72-.55a34.54,34.54,0,0,0-4.94-4.15c-.42-.3-1,.4-.55.72A41.55,41.55,0,0,1,41,21.72c.38.45,1-.19.65-.65a23.94,23.94,0,0,0-6.16-5.36l-.46.79,6.77,3.87a.46.46,0,0,0,.46-.79l-7.78-4.84c-.5-.3-.95.47-.46.79q4,2.67,7.81,5.72a.46.46,0,0,0,.65-.65A20.52,20.52,0,0,0,35.73,15l-.35.83a58.45,58.45,0,0,1,7.87,3.74.46.46,0,0,0,.62-.62,12.39,12.39,0,0,0-5.06-4.65l-.23.85a9.53,9.53,0,0,1,5.19,2.39l.65-.65a16.38,16.38,0,0,0-6.26-3,.46.46,0,0,0-.35.83,23.72,23.72,0,0,1,5.14,5.11.46.46,0,0,0,.79-.46,8.7,8.7,0,0,0-4-4.17c-.44-.22-1,.36-.55.72q2.69,2.35,5.13,4.95A.46.46,0,0,0,45,20.3a22.9,22.9,0,0,0-7.82-7.64l-.46.79a27.19,27.19,0,0,1,9,6.19L46.3,19a44.54,44.54,0,0,0-11-6.9.46.46,0,0,0-.46.79l14.78,10c.36.25.73-.16.67-.51A7.73,7.73,0,0,0,49,19.21l-.51.67a84.56,84.56,0,0,0,10.62,3.46c.48.12.84-.61.35-.83L47.54,17c-.45-.2-.95.33-.55.72,1.57,1.55,3.94,4.18,2.07,6.39a15.21,15.21,0,0,1-2.65,2.13L43.3,28.62,31.6,37.38l.55.72L43.83,24.35c.38-.44-.22-1.06-.65-.65L19.05,47.45l.66.65A74.53,74.53,0,0,1,35,34.17l-.55-.72-7.33,5.86.7.56c1.06-2.4,3.24-3.91,5.28-5.43s4.35-3.16,6.58-4.67c4.46-3,9-5.87,13.59-8.72a.46.46,0,0,0-.46-.79L32.57,29.13l.46.79C45.6,22.2,59.48,17.09,73.28,12.06l-.35-.83A69.73,69.73,0,0,0,55.24,24a.46.46,0,0,0,.65.65A68.94,68.94,0,0,1,73.38,12c.45-.23.14-1-.35-.83-13.87,5.07-27.83,10.2-40.46,18-.51.3-.07,1,.46.79l20.21-8.87-.46-.79c-4.89,3-9.78,6.11-14.54,9.37-2.37,1.63-4.72,3.31-7,5.06A12.54,12.54,0,0,0,27,39.41a.46.46,0,0,0,.72.55l7.33-5.87c.4-.32-.13-1-.55-.72A75.37,75.37,0,0,0,19.06,47.45c-.37.44.22,1.07.65.65L43.83,24.35l-.65-.65L31.51,37.44c-.3.37.11,1.05.55.72l15-11.26c1.52-1.13,3.46-2.26,3.55-4.37s-1.61-4-3-5.41l-.55.72,12,5.45.35-.83A84.56,84.56,0,0,1,48.76,19a.46.46,0,0,0-.51.67,7.19,7.19,0,0,1,1.22,3l.67-.51-14.79-10-.46.79a43.9,43.9,0,0,1,10.79,6.76.46.46,0,0,0,.65-.65,27.81,27.81,0,0,0-9.13-6.33c-.52-.23-1,.48-.46.79a21.89,21.89,0,0,1,7.5,7.31l.72-.55a69.09,69.09,0,0,0-5.13-4.95l-.55.72A7.92,7.92,0,0,1,43,19.84l.79-.46a25.19,25.19,0,0,0-5.48-5.44l-.35.83a15.36,15.36,0,0,1,5.86,2.8c.45.35,1.1-.24.65-.65a10.6,10.6,0,0,0-5.84-2.66c-.45-.06-.61.66-.23.85a11.51,11.51,0,0,1,4.73,4.32l.62-.62A60.08,60.08,0,0,0,35.61,15c-.48-.19-.81.61-.35.83a20,20,0,0,1,6.58,5.43l.65-.65a97.66,97.66,0,0,0-8-5.86l-.46.79,7.77,4.83.46-.79L35.51,15.7a.46.46,0,0,0-.46.79,23.18,23.18,0,0,1,6,5.22l.65-.65a41.55,41.55,0,0,0-6.32-6.15l-.55.72a33.28,33.28,0,0,1,4.77,4c.36.36,1-.12.72-.55l-4.88-7.22-.71.56a18.47,18.47,0,0,1,4,8.8l.76-.44a43.46,43.46,0,0,1-7.37-8.24l-.79.46a58.84,58.84,0,0,0,9.07,9.86.46.46,0,0,0,.76-.44,14,14,0,0,0-4.37-7.66c-.44-.39-1.08.25-.65.65Z"/><path class="cls-1" d="M72.1,41.75a29.66,29.66,0,0,0,.3,6.8c.09.58,1,.33.88-.24A28.62,28.62,0,0,1,73,41.75c0-.59-.87-.58-.91,0Z"/><path class="cls-1" d="M71.66,46.27a10.72,10.72,0,0,1,1,2.11.46.46,0,0,0,.88,0,7,7,0,0,0,.22-3.11c-.09-.58-1-.33-.88.24a6,6,0,0,1-.22,2.63h.88a11.85,11.85,0,0,0-1.08-2.33.46.46,0,0,0-.79.46Z"/><path class="cls-1" d="M76.52,52.1l.06,1.31a.46.46,0,0,0,.9.12,5.74,5.74,0,0,0,0-2.81.46.46,0,0,0-.76-.2c-.42.46-.86,1.55-.14,2a.57.57,0,0,0,.59-1c-.47-.36-.91.44-.46.79l.05,0-.23-.4v-.08l.27-.21-.08,0,.35,0c-.06,0,.23-.51.28-.56l-.76-.2a4.73,4.73,0,0,1,0,2.33l.9.12-.06-1.31c0-.58-.94-.59-.91,0Z"/><path class="cls-1" d="M72.27,47.23l-.06,2.5a.46.46,0,0,0,.9.12,17,17,0,0,0,.22-6.48c-.07-.43-.63-.39-.83-.11a3.39,3.39,0,0,0-.53,3,.46.46,0,0,0,.88-.24,2.55,2.55,0,0,1,.44-2.34l-.83-.11a15.72,15.72,0,0,1-.22,6l.9.12.06-2.5a.46.46,0,0,0-.91,0Z"/><path class="cls-1" d="M24.84,72.94c4.92-3.17,7-8.3,9.42-13.37.19-.4-.4-.74-.59-.35-2.4,4.94-4.36,10-9.17,13.13C24.12,72.59,24.46,73.18,24.84,72.94Z"/><path class="cls-1" d="M72.06,42.26l-.71-4.41-.66.18a33.86,33.86,0,0,1,2.17,8.08c.06.44.72.25.66-.18a33.86,33.86,0,0,0-2.17-8.08.34.34,0,0,0-.66.18l.71,4.41c.07.44.73.25.66-.18Z"/><path class="cls-1" d="M73.34,52.24a.34.34,0,1,0-.31-.31A.34.34,0,0,0,73.34,52.24Z"/><path class="cls-1" d="M73.71,52.4l2.06-11.77c.08-.43-.58-.61-.66-.18l-2,11.77c-.08.43.58.61.66.18Z"/></g></g></g></g></svg>